<svg width="300" height="450" viewBox="0 0 300 450" fill="none" xmlns="http://www.w3.org/2000/svg">
  <rect width="300" height="450" fill="#2A2A2A"/>
  <path d="M150 165C138.954 165 130 173.954 130 185V265C130 276.046 138.954 285 150 285C161.046 285 170 276.046 170 265V185C170 173.954 161.046 165 150 165ZM90 205C78.9543 205 70 213.954 70 225V265C70 276.046 78.9543 285 90 285C101.046 285 110 276.046 110 265V225C110 213.954 101.046 205 90 205ZM210 205C198.954 205 190 213.954 190 225V265C190 276.046 198.954 285 210 285C221.046 285 230 276.046 230 265V225C230 213.954 221.046 205 210 205Z" fill="#404040"/>
  <text x="150" y="350" text-anchor="middle" font-family="Arial" font-size="24" fill="#505050">Sem imagem</text>
  <text x="150" y="380" text-anchor="middle" font-family="Arial" font-size="18" fill="#404040">disponível</text>
</svg> 